<svg xmlns="http://www.w3.org/2000/svg" height="206.646" width="200.675"><g stroke="#3e4147" stroke-linecap="round" stroke-linejoin="round" stroke-width="2"><path d="M196.319 144.389c-15.284 3.322-25.252-11.962-19.271-27.91L74.71 143.726l-5.981 32.562 7.975 15.949 10.775 13.367 14.473-5.4z" fill="#ebdaa7"/><path d="M181.699 119.137l-98.35 51.833c-12.626 11.961-3.809 33.713 16.791 24.41 0 0 92.192-49 96.179-50.991s4.652 3.322.664 5.98l-95.027 49.84c-15.284 7.975-24.588 9.968-37.214-12.626 0 0-59.143-97.686-59.808-99.679-5.98-12.626-5.98-25.917 5.981-34.556L114.532 1z" fill="#a57f53"/><path d="M104.886 52.287C87.041 39.633 59.851 73.313 80.241 86.48c10.719 6.922 24.452-3.627 36.342.011 13.254 4.055 14.661 19.13 6.8 29.1-10.741 13.629-24.524 11.254-33.862-.393" fill="none"/><path d="M75.452 46.634c10.58 20.757 19.462 42.313 31.03 62.506 1.054 1.841 5.622 12.261 10.34 22.227M85.896 40.546s16.326 31.8 22.382 45.334c5.605 12.527 19.107 37.563 19.107 37.563" fill="none"/></g><path d="M196.319 144.389c-3.987 1.993-96.179 50.991-96.179 50.991-20.167 9.107-29.028-11.542-17.545-23.637L12.346 52.626l-1.431.723c-11.961 8.639-11.961 21.93-5.981 34.556.665 1.993 59.808 99.679 59.808 99.679 12.626 22.594 21.93 20.6 37.214 12.626l95.027-49.839c3.988-2.66 3.323-7.976-.664-5.982z" fill="#8f6547"/><path d="M181.699 119.137l-98.35 51.833c-12.626 11.961-3.809 33.713 16.791 24.41 0 0 92.192-49 96.179-50.991s4.652 3.322.664 5.98l-95.027 49.84c-15.284 7.975-24.588 9.968-37.214-12.626 0 0-59.143-97.686-59.808-99.679-5.98-12.626-5.98-25.917 5.981-34.556L114.532 1zM15.567 57.335l63.13 108.983" fill="none" stroke="#3e4147" stroke-linecap="round" stroke-linejoin="round" stroke-width="2"/><path d="M17.039 45.411l26.367 41.553L46.95 74.09l14.148 3.824-26.384-41.73z" fill="#f3783c" stroke="#3e4147" stroke-linecap="round" stroke-linejoin="round" stroke-width="2"/><path d="M89.994 174.293l85.608-44.624 1.372 5.539-66.38 35.1M124.55 170.305l56.8-29.6 3.662 2.508" fill="none" stroke="#3e4147" stroke-linecap="round" stroke-linejoin="round" stroke-width="2"/></svg>
